:SAMPLES-PER-SECOND 30
:FULLY-SPECIFIED
:DEGREES
97
root  -4.32878 40.9456 0.265394 1.40271 -71.0303 3.80392
RightUpLeg  2.91066 -2.05623 -1.10751
RightLeg  -7.75892 -36.8442 5.4236
RightFoot  -0.222318 -0.253447 2.67082
RightToes  -3.13588e-008 1.75238e-005 3.56266e-009
Spine  1.08525 4.34533 4.98674
Spine1  -7.61957 5.11928 -8.15011
HEad  -7.43425 3.30629 8.99861
LeftShoulder1  1.23221 -1.00255 -20.9346
LeftArm  -29.4234 34.2466 -46.7857
LeftForeArm  59.8687 -77.1215 -47.167
LeftHand  -0.367341 -3.07798 5.26631
RightShoulder  1.15754 1.47344 16.6071
RightArm  -57.2458 37.9037 23.3533
RightForeArm  140.769 64.6672 156.169
RightHand  -0.167246 8.92561 -1.73958
LeftUpLeg  -2.91654 -0.308811 2.464
LeftLeg  -4.13626 -1.7223 -0.0747293
LeftFoot  2.40091 0.431347 -3.69809
LeftToes  4.76812e-008 1.47286e-008 1.3089e-009
98
root  -4.34333 40.9461 0.29594 1.20978 -71.2565 4.06693
RightUpLeg  2.81222 -2.13277 -1.25109
RightLeg  -7.59705 -36.5296 5.29915
RightFoot  -0.230844 -0.257893 2.73168
RightToes  -3.13588e-008 1.75238e-005 3.56266e-009
Spine  0.837686 4.25599 5.37699
Spine1  -7.30979 5.09553 -8.68341
HEad  -6.34712 4.03566 9.6356
LeftShoulder1  1.21541 -0.980855 -20.6648
LeftArm  -29.2341 35.539 -47.0596
LeftForeArm  61.0345 -77.3284 -48.1623
LeftHand  -0.323746 -3.05018 4.69328
RightShoulder  0.859811 0.460061 14.9902
RightArm  -60.013 40.4819 22.0542
RightForeArm  139.949 61.526 158.952
RightHand  -0.246415 9.08007 -2.36429
LeftUpLeg  -2.83787 -0.372197 2.35969
LeftLeg  -4.2854 -1.44532 -0.112468
LeftFoot  2.45356 0.42604 -3.61219
LeftToes  4.76812e-008 1.47286e-008 1.3089e-009
99
root  -4.36083 40.9466 0.312125 1.01453 -71.4325 4.24829
RightUpLeg  2.79453 -2.17295 -1.32713
RightLeg  -7.43033 -36.3421 5.16254
RightFoot  -0.272702 -0.263895 2.81727
RightToes  -3.13588e-008 1.75238e-005 3.56266e-009
Spine  0.544432 4.04691 5.69399
Spine1  -7.0224 4.97168 -9.36733
HEad  -5.26112 4.50676 10.7331
LeftShoulder1  1.10745 -0.640275 -20.2681
LeftArm  -27.9012 36.2648 -46.7141
LeftForeArm  61.4518 -77.3359 -48.034
LeftHand  -0.395405 -2.6105 5.95558
RightShoulder  0.800412 0.220961 14.7388
RightArm  -61.2646 40.986 20.8381
RightForeArm  140.5 60.712 159.624
RightHand  -0.0785556 9.16256 -1.02218
LeftUpLeg  -2.67937 -0.408394 2.29316
LeftLeg  -4.42855 -1.22613 -0.128177
LeftFoot  2.45683 0.425047 -3.58932
LeftToes  4.76812e-008 1.47286e-008 1.3089e-009
100
root  -4.3798 40.9472 0.3111 0.884491 -71.427 4.36462
RightUpLeg  2.85039 -2.20083 -1.35994
RightLeg  -7.4402 -36.3092 5.17195
RightFoot  -0.330524 -0.263429 2.80312
RightToes  -3.13588e-008 1.75238e-005 3.56266e-009
Spine  0.210951 4.02002 5.54151
Spine1  -6.61962 4.95923 -9.25387
HEad  -4.75179 4.67728 11.4303
LeftShoulder1  1.10415 -0.593462 -20.4983
LeftArm  -26.5808 35.9532 -46.163
LeftForeArm  60.1142 -76.999 -46.2085
LeftHand  -0.392718 -2.54086 5.97821
RightShoulder  0.796622 0.202415 14.7426
RightArm  -61.4063 40.0371 19.7989
RightForeArm  140.668 61.1776 159.266
RightHand  -0.138909 9.09998 -1.50076
LeftUpLeg  -2.63452 -0.405641 2.26907
LeftLeg  -4.41843 -1.22684 -0.143416
LeftFoot  2.43529 0.423727 -3.55861
LeftToes  4.76812e-008 1.47286e-008 1.3089e-009
101
root  -4.39493 40.9477 0.302948 0.585449 -71.4703 4.51538
RightUpLeg  2.96512 -2.2451 -1.39254
RightLeg  -7.24984 -36.2253 5.03963
RightFoot  -0.409222 -0.263499 2.79797
RightToes  -3.13588e-008 1.75238e-005 3.56266e-009
Spine  -0.381528 4.04568 5.06396
Spine1  -5.66753 4.99302 -8.65576
HEad  -4.33884 4.73267 10.9068
LeftShoulder1  1.16535 -0.76242 -20.8979
LeftArm  -26.4101 35.2844 -46.1153
LeftForeArm  59.0752 -76.7837 -45.225
LeftHand  -0.373032 -3.01305 5.40239
RightShoulder  0.810861 0.263421 14.7695
RightArm  -60.4465 39.0827 19.8692
RightForeArm  141.438 61.9223 158.731
RightHand  -0.215045 9.16157 -2.10419
LeftUpLeg  -2.42336 -0.381746 2.24069
LeftLeg  -4.44608 -1.19838 -0.156505
LeftFoot  2.42044 0.422793 -3.53263
LeftToes  4.76812e-008 1.47286e-008 1.3089e-009
102
root  -4.39283 40.9482 0.293976 0.496277 -71.6055 4.42624
RightUpLeg  3.03843 -2.26544 -1.36858
RightLeg  -6.9625 -36.0358 4.8698
RightFoot  -0.497888 -0.268303 2.86699
RightToes  -3.13588e-008 1.75238e-005 3.56266e-009
Spine  0.114061 3.90244 5.24571
Spine1  -6.19095 4.86324 -9.00391
HEad  -3.89374 4.45041 10.5656
LeftShoulder1  1.12522 -0.669226 -20.5218
LeftArm  -26.6853 35.1379 -46.6259
LeftForeArm  59.0757 -76.852 -45.6679
LeftHand  -0.437744 -2.32045 6.78858
RightShoulder  0.86686 0.443215 15.2535
RightArm  -58.703 38.3399 20.3965
RightForeArm  141.775 62.2031 158.525
RightHand  -0.155156 8.8819 -1.65119
LeftUpLeg  -2.22983 -0.320487 2.29464
LeftLeg  -4.42526 -1.14308 -0.157808
LeftFoot  2.35699 0.4292 -3.62105
LeftToes  4.76812e-008 1.47286e-008 1.3089e-009
103
root  -4.38953 40.9485 0.281585 0.552582 -71.8105 4.35242
RightUpLeg  2.99993 -2.21373 -1.31826
RightLeg  -6.92209 -35.8917 4.82161
RightFoot  -0.475976 -0.267945 2.85671
RightToes  -3.13588e-008 1.75238e-005 3.56266e-009
Spine  0.0778618 3.967 5.15918
Spine1  -6.05792 4.91808 -8.82151
HEad  -4.01326 4.45571 10.3219
LeftShoulder1  1.10963 -0.628256 -20.4034
LeftArm  -26.6006 34.5543 -46.9553
LeftForeArm  59.7414 -76.9598 -46.1009
LeftHand  -0.439065 -2.23529 6.8968
RightShoulder  0.881754 0.476978 15.4583
RightArm  -57.2851 38.0914 20.5961
RightForeArm  142.469 62.2941 158.513
RightHand  -0.160384 9.30664 -1.6608
LeftUpLeg  -2.24106 -0.293507 2.33997
LeftLeg  -4.33675 -0.960088 -0.15119
LeftFoot  2.30953 0.430522 -3.63185
LeftToes  4.76812e-008 1.47286e-008 1.3089e-009
104
root  -4.40327 40.9487 0.273047 0.553192 -72.1891 4.20435
RightUpLeg  3.24726 -2.12164 -1.22283
RightLeg  -7.21886 -35.6456 4.93104
RightFoot  -0.413741 -0.262157 2.76301
RightToes  -3.13588e-008 1.75238e-005 3.56266e-009
Spine  0.104816 4.12974 5.15986
Spine1  -5.92202 5.08525 -8.76443
HEad  -3.88998 3.94815 10.3148
LeftShoulder1  1.11016 -0.641968 -20.3208
LeftArm  -26.2579 33.8298 -46.8204
LeftForeArm  59.4887 -76.9667 -46.2551
LeftHand  -0.47632 -2.05506 7.67957
RightShoulder  0.881212 0.479972 15.4241
RightArm  -56.3695 37.8988 20.6747
RightForeArm  142.553 62.2737 158.539
RightHand  -0.195618 9.17141 -1.94918
LeftUpLeg  -1.97948 -0.177119 2.44397
LeftLeg  -4.4083 -0.720712 -0.179037
LeftFoot  2.25991 0.431839 -3.64557
LeftToes  4.76812e-008 1.47286e-008 1.3089e-009
105
root  -4.41053 40.9486 0.243993 0.696228 -72.3204 4.13257
RightUpLeg  3.21704 -2.02849 -1.1346
RightLeg  -7.38548 -35.6064 5.00646
RightFoot  -0.370229 -0.259348 2.71641
RightToes  -3.13588e-008 1.75238e-005 3.56266e-009
Spine  -0.216515 4.19261 4.60131
Spine1  -5.61228 5.09482 -8.07647
HEad  -4.10502 3.9752 10.3207
LeftShoulder1  1.14643 -0.744516 -20.5457
LeftArm  -26.5155 33.1974 -46.356
LeftForeArm  59.9895 -77.0786 -46.8095
LeftHand  -0.417296 -3.1507 5.90943
RightShoulder  0.863265 0.437716 15.1856
RightArm  -56.2674 37.7973 20.535
RightForeArm  142.54 62.9117 157.979
RightHand  -0.203478 9.39205 -1.99443
LeftUpLeg  -2.0897 -0.100393 2.5466
LeftLeg  -4.31483 -0.658061 -0.208977
LeftFoot  2.2047 0.444479 -3.84003
LeftToes  4.76812e-008 1.47286e-008 1.3089e-009
106
root  -4.42001 40.9484 0.215575 0.904419 -72.292 4.02777
RightUpLeg  3.11142 -1.98673 -1.0554
RightLeg  -7.43004 -35.68 5.06256
RightFoot  -0.342642 -0.253762 2.62766
RightToes  -3.13588e-008 1.75238e-005 3.56266e-009
Spine  -0.0270596 4.04745 4.24506
Spine1  -6.0869 4.89845 -7.81654
HEad  -3.73691 3.77531 9.92295
LeftShoulder1  1.15251 -0.788916 -20.3987
LeftArm  -27.3116 32.8722 -45.8267
LeftForeArm  60.4955 -77.1852 -47.3447
LeftHand  -0.457888 -2.41064 7.01658
RightShoulder  0.859066 0.42462 15.1475
RightArm  -56.5175 37.2314 20.1241
RightForeArm  141.825 64.0642 156.843
RightHand  -0.151905 9.73065 -1.56347
LeftUpLeg  -2.23494 -0.0835812 2.61936
LeftLeg  -4.27092 -0.669672 -0.195702
LeftFoot  2.21077 0.4498 -3.92331
LeftToes  4.76812e-008 1.47286e-008 1.3089e-009
107
root  -4.42766 40.9478 0.197019 1.16245 -72.3374 3.8674
RightUpLeg  3.04363 -1.92535 -0.971318
RightLeg  -7.55668 -35.6899 5.15737
RightFoot  -0.32438 -0.249662 2.56293
RightToes  -3.13588e-008 1.75238e-005 3.56266e-009
Spine  0.0599382 3.9525 3.9574
Spine1  -6.32896 4.74996 -7.4451
HEad  -3.64216 3.32249 9.08558
LeftShoulder1  1.13885 -0.751644 -20.305
LeftArm  -28.3698 32.0704 -44.882
LeftForeArm  60.3822 -77.1701 -47.2892
LeftHand  -0.481623 -2.6889 7.14455
RightShoulder  0.828288 0.347005 14.7545
RightArm  -57.0326 36.0354 19.6333
RightForeArm  140.955 65.0525 155.769
RightHand  -0.244014 9.43933 -2.30244
LeftUpLeg  -2.3704 -0.0690358 2.68928
LeftLeg  -4.21878 -0.641056 -0.162877
LeftFoot  2.1823 0.450481 -3.93492
LeftToes  4.76812e-008 1.47286e-008 1.3089e-009
108
root  -4.44612 40.9461 0.168839 1.11914 -72.2904 3.97565
RightUpLeg  3.02589 -1.96413 -0.985578
RightLeg  -7.61107 -35.6586 5.24829
RightFoot  -0.374553 -0.24515 2.49286
RightToes  -3.13588e-008 1.75238e-005 3.56266e-009
Spine  -0.100316 3.76784 3.55778
Spine1  -6.10509 4.5433 -7.04165
HEad  -4.22176 3.28864 8.301
LeftShoulder1  1.04612 -0.440735 -20.0436
LeftArm  -29.4315 30.4862 -43.5828
LeftForeArm  59.3844 -76.986 -46.4289
LeftHand  -0.43569 -2.47531 6.65726
RightShoulder  0.816177 0.303947 14.6712
RightArm  -57.8718 34.5246 18.8345
RightForeArm  139.003 65.6374 154.93
RightHand  -0.176539 8.59781 -1.85068
LeftUpLeg  -2.39368 -0.0388828 2.71823
LeftLeg  -4.28524 -0.697285 -0.189064
LeftFoot  2.23194 0.450731 -3.94101
LeftToes  4.76812e-008 1.47286e-008 1.3089e-009
109
root  -4.4648 40.9404 0.143452 1.10214 -72.0524 4.08279
RightUpLeg  2.92061 -2.03636 -1.01008
RightLeg  -7.47194 -35.8359 5.26062
RightFoot  -0.523373 -0.247107 2.53046
RightToes  -3.13588e-008 1.75238e-005 3.56266e-009
Spine  -0.024886 3.5272 2.89781
Spine1  -6.33316 4.22033 -6.26453
HEad  -3.74058 2.55037 6.97994
LeftShoulder1  1.00703 -0.358536 -19.5679
LeftArm  -30.0689 29.1497 -42.1174
LeftForeArm  58.1708 -76.904 -46.3924
LeftHand  -0.384273 -1.46705 6.67065
RightShoulder  0.846693 0.404588 14.9232
RightArm  -58.6316 32.5244 17.3121
RightForeArm  137.013 66.5468 153.678
RightHand  -0.167056 8.9631 -1.7371
LeftUpLeg  -2.46956 -0.108244 2.69679
LeftLeg  -4.35597 -0.869316 -0.127778
LeftFoot  2.24563 0.455531 -4.01978
LeftToes  4.76812e-008 1.47286e-008 1.3089e-009
110
root  -4.47903 40.9382 0.117554 1.36996 -71.8055 3.9523
RightUpLeg  2.76288 -2.03332 -0.946639
RightLeg  -7.40532 -36.07 5.30545
RightFoot  -0.581726 -0.244442 2.49999
RightToes  -3.13588e-008 1.75238e-005 3.56266e-009
Spine  -0.0435978 3.38793 1.89302
Spine1  -6.60473 3.92543 -4.8175
HEad  -4.696 3.64702 6.3282
LeftShoulder1  0.997296 -0.376212 -19.1626
LeftArm  -30.6252 27.9251 -41.2439
LeftForeArm  57.2675 -76.7261 -45.5941
LeftHand  -0.360682 -1.90796 5.91846
RightShoulder  0.824443 0.334754 14.7203
RightArm  -59.1142 30.1507 16.2408
RightForeArm  136.074 67.4959 152.386
RightHand  -0.282553 8.95238 -2.67377
LeftUpLeg  -2.69198 -0.0737926 2.77871
LeftLeg  -4.28521 -1.16817 -0.123171
LeftFoot  2.25595 0.456051 -4.0343
LeftToes  4.76812e-008 1.47286e-008 1.3089e-009
